<svg width="48" height="35" viewBox="0 0 48 35" fill="none" xmlns="http://www.w3.org/2000/svg">
<path d="M19.8681 1.33324C16.2677 2.23201 13.1905 4.81689 11.3908 8.0622C9.5912 11.3075 9.01844 15.1578 9.45983 18.8424C9.85121 22.1093 11.0826 25.3744 13.4482 27.6614C16.6916 30.797 21.7259 31.6448 26.0794 30.4618C30.4329 29.2788 34.1333 26.2986 36.9185 22.7497C39.5057 19.4531 41.444 15.0218 39.892 11.1292C38.5582 7.78386 34.6749 5.31403 31.6339 3.60194C28.2427 1.69272 23.6966 0.37754 19.8681 1.33324Z" fill="#FED349"/>
<path d="M11.4198 24.8469C8.3891 24.8469 5.36099 23.7076 3.30099 21.5285C0.73182 18.8105 -0.444933 14.5885 0.152951 10.2348C0.565029 7.23404 2.28023 3.32359 5.18354 1.35143C6.82102 0.239329 8.67132 -0.106684 10.5337 0.351053C18.1149 2.21425 20.9905 6.18137 22.0678 9.18126C23.8546 14.1576 21.956 20.1025 17.6516 23.0093C15.8191 24.2471 13.6187 24.8469 11.4198 24.8469ZM8.92877 1.58048C7.9047 1.58048 6.91915 1.89876 5.98588 2.53273C3.45961 4.24881 1.92464 7.82896 1.56765 10.429C1.02798 14.3583 2.06391 18.141 4.33884 20.5475C7.43406 23.8221 13.0477 24.3956 16.8526 21.8261C20.5704 19.3151 22.271 13.9729 20.7238 9.66376C18.9861 4.82492 14.038 2.68282 10.1929 1.73788C9.76597 1.63295 9.34416 1.58048 8.92877 1.58048Z" fill="#45539F"/>
<path d="M30.6216 34.7594C28.9102 34.7594 27.2378 34.4386 25.7053 33.7944C22.2305 32.3337 19.9721 29.4727 18.6895 27.3301C15.7369 22.3977 14.9994 16.3867 16.7169 11.2507C18.5421 5.79306 23.1811 1.50293 28.5356 0.321291C33 -0.663379 37.8371 0.639416 41.806 3.89744C45.7792 7.15877 48.0936 11.8449 47.997 16.4328C47.9274 19.7394 46.7719 23.1733 44.6553 26.3632C42.482 29.6385 39.6716 32.1027 36.5277 33.4894C34.6115 34.3344 32.5908 34.7594 30.6216 34.7594ZM28.8434 1.71575C23.9688 2.79141 19.7404 6.712 18.0712 11.7035C16.484 16.4496 17.1732 22.0171 19.9146 26.5966C21.0877 28.5562 23.1405 31.1672 26.2586 32.478C29.195 33.7123 32.7276 33.6047 35.9514 32.1827C38.8452 30.9064 41.4434 28.621 43.4654 25.5736C45.4322 22.6096 46.5054 19.4384 46.5694 16.4028C46.6569 12.2491 44.5374 7.9869 40.9001 5.00113C37.3253 2.0668 32.818 0.838285 28.8434 1.71575Z" fill="#FF8A48"/>
</svg>
